HIERARCHY
ROOT Hips
{
	OFFSET 0.00000 0.00000 0.00000
	CHANNELS 6 Xposition Yposition Zposition Zrotation Yrotation Xrotation 
	JOINT LHipJoint
	{
		OFFSET 0 0 0
		CHANNELS 3 Zrotation Yrotation Xrotation
		JOINT LeftHip
		{
			OFFSET 1.75344 -1.53157 0.77399
			CHANNELS 3 Zrotation Yrotation Xrotation
			JOINT LeftKnee
			{
				OFFSET 2.25415 -6.19323 0.00000
				CHANNELS 3 Zrotation Yrotation Xrotation
				JOINT LeftAnkle
				{
					OFFSET 2.30342 -6.32861 0.00000
					CHANNELS 3 Zrotation Yrotation Xrotation
					JOINT LeftToe
					{
						OFFSET 0.10958 -0.30108 1.49206
						CHANNELS 3 Zrotation Yrotation Xrotation
						End Site
						{
							OFFSET 0.00000 -0.00000 0.77783
						}
					}
				}
			}
		}
	}
	JOINT RHipJoint
	{
		OFFSET 0 0 0
		CHANNELS 3 Zrotation Yrotation Xrotation
		JOINT RightHip
		{
			OFFSET -1.81912 -1.53156 0.77399
			CHANNELS 3 Zrotation Yrotation Xrotation
			JOINT RightKnee
			{
				OFFSET -2.22882 -6.12365 0.00000
				CHANNELS 3 Zrotation Yrotation Xrotation
				JOINT RightAnkle
				{
					OFFSET -2.21943 -6.09785 0.00000
					CHANNELS 3 Zrotation Yrotation Xrotation
					JOINT RightToe
					{
						OFFSET -0.18931 -0.52012 1.59379
						CHANNELS 3 Zrotation Yrotation Xrotation
						End Site
						{
							OFFSET -0.00000 -0.00000 0.84686
						}
					}
				}
			}
		}
	}
	JOINT lowerback
	{
		OFFSET 0 0 0
		CHANNELS 3 Zrotation Yrotation Xrotation
		JOINT Chest
		{
			OFFSET -0.00200 1.66634 -0.14248
			CHANNELS 3 Zrotation Yrotation Xrotation
			JOINT Chest2
			{
				OFFSET -0.00875 1.64542 0.09514
				CHANNELS 3 Zrotation Yrotation Xrotation
				JOINT lowerneck
				{
					OFFSET 0 0 0
					CHANNELS 3 Zrotation Yrotation Xrotation
					JOINT Neck
					{
						OFFSET 0.02257 1.59605 0.00839
						CHANNELS 3 Zrotation Yrotation Xrotation
						JOINT Head
						{
							OFFSET -0.10214 1.57530 -0.23335
							CHANNELS 3 Zrotation Yrotation Xrotation
							End Site
							{
								OFFSET -0.03588 1.60717 -0.08062
							}
						}
					}
				}
				JOINT LeftCollar
				{
					OFFSET 0 0 0
					CHANNELS 3 Zrotation Yrotation Xrotation
					JOINT LeftShoulder
					{
						OFFSET 2.54983 1.10186 0.40078
CHANNELS 3 Zrotation Xrotation Yrotation
						JOINT LeftElbow
						{
OFFSET 0 -4.288400 0.000000
CHANNELS 3 Zrotation Xrotation Yrotation
							JOINT LeftWrist
							{
OFFSET 0 -3.065520 -0.000000
CHANNELS 3 Zrotation Xrotation Yrotation
								JOINT lhand
								{
									OFFSET 0 0 0
CHANNELS 3 Zrotation Xrotation Yrotation
									JOINT LFingers
									{
OFFSET 0 -0.753040 0.000000
CHANNELS 3 Zrotation Xrotation Yrotation
										End Site
										{
OFFSET 0 -0.607120 0.000000
										}
									}
								}
								JOINT LThumb
								{
OFFSET 0 0.000000 0.000000
CHANNELS 3 Zrotation Xrotation Yrotation
									End Site
									{
OFFSET 0 -0.616390 0.616390
									}
								}
							}
						}
					}
				}
				JOINT RightCollar
				{
					OFFSET 0 0 0
					CHANNELS 3 Zrotation Yrotation Xrotation
					JOINT RightShoulder
					{
						OFFSET -2.60909 1.35448 0.21802
CHANNELS 3 Zrotation Xrotation Yrotation
						JOINT RightElbow
						{
OFFSET 0 -4.521720 -0.000000
CHANNELS 3 Zrotation Xrotation Yrotation
							JOINT RightWrist
							{
OFFSET 0 -2.891400 0.000000
CHANNELS 3 Zrotation Xrotation Yrotation
								JOINT rhand
								{
									OFFSET 0 0 0
CHANNELS 3 Zrotation Xrotation Yrotation
									JOINT RFingers
									{
OFFSET 0 -0.680540 0.000000
CHANNELS 3 Zrotation Xrotation Yrotation
										End Site
										{
OFFSET 0 -0.548670 0.000000
										}
									}
								}
								JOINT RThumb
								{
OFFSET 0 0.000000 0.000000
CHANNELS 3 Zrotation Xrotation Yrotation
									End Site
									{
OFFSET 0 -0.557050 0.557050
									}
								}
							}
						}
					}
				}
			}
		}
	}
}
MOTION
Frames: 8
Frame Time: 0.008333333333333333
8.140800 14.991100 41.698900 177.532000 -14.535900 177.148000 0.000000 0.000000 0.000000 -29.569000 -19.474000 2.065800 2.428400 9.706600 28.031800 1.934700 -2.284300 -25.697000 2.589800 -9.999300 -28.974500 0.000000 0.000000 0.000000 20.431400 6.534500 0.462100 -3.018200 -10.724400 31.356000 -2.355800 -15.228400 -37.606800 -0.306200 -3.557700 9.835600 -1.746600 1.322000 5.337900 -0.179700 1.554300 -3.720600 0.619400 0.818800 -6.925000 7.736100 14.385200 -5.198500 -3.564500 19.020700 13.392300 -0.875700 9.336100 5.987400 -0.000000 0.000000 0.000000 2.948500 17.210000 -21.949600 19.148200 -29.602400 5.103800 10.252400 7.658300 33.242700 0.000000 0.000000 0.000000 -7.125000 0.000000 0.000000 -12.203500 -3.016800 -13.123800 -0.000000 0.000000 0.000000 -8.535600 14.669400 54.796700 -18.682400 -29.022100 -4.875800 -11.592800 17.638300 48.797400 0.000000 0.000000 0.000000 7.125000 0.000000 -0.000000 52.723400 73.809200 -38.447500
8.150872 15.003323 41.672877 177.930786 -13.143496 177.427516 0.000000 0.000000 0.000000 -28.904027 -19.217362 1.562884 2.477423 9.796842 28.321237 2.031788 -2.092078 -26.401917 2.387268 -9.630055 -27.786876 0.000000 0.000000 0.000000 21.004234 7.620751 0.557747 -2.921557 -10.567092 30.833307 -2.283928 -15.069712 -37.120000 -0.344328 -3.770460 10.431766 -1.127839 1.582487 4.826071 -0.175427 1.968117 -3.517617 0.248800 0.993856 -6.401886 8.056976 14.384390 -5.245837 -3.826396 19.008578 11.469188 -1.064076 9.379535 5.442975 0.000000 0.000000 0.000000 2.837437 15.908374 -21.450816 18.824969 -29.200538 4.945127 11.641404 7.356025 32.839916 0.000000 0.000000 0.000000 -7.125000 0.000000 0.000000 -11.401306 -2.823723 -12.188291 0.000000 0.000000 0.000000 -6.213663 15.063485 49.567353 -18.845409 -29.226136 -4.955149 -15.322322 21.543324 49.736208 0.000000 0.000000 0.000000 7.125000 0.000000 0.000000 52.833690 75.715387 -40.396325
8.156197 15.000233 41.678550 178.202234 -11.657153 177.371337 0.000000 0.000000 0.000000 -28.510310 -18.597993 1.358533 2.483657 9.808217 28.357830 2.061336 -1.325423 -26.798330 2.551843 -9.931455 -28.755108 0.000000 0.000000 0.000000 21.066231 7.727355 0.014213 -2.976803 -10.657503 31.133213 -2.196811 -14.746457 -36.418805 -0.133492 -2.354604 6.486715 -0.287444 2.141628 5.237964 -0.423615 2.779360 -3.212984 -0.572414 1.356806 -6.274341 8.629961 14.159260 -2.702334 -4.899645 18.830533 5.792897 -2.090165 9.387732 3.803136 0.000000 0.000000 0.000000 3.356823 13.962042 -22.113297 19.354200 -29.856452 5.206063 10.226457 6.682627 32.750357 0.000000 0.000000 0.000000 -7.125000 0.000000 0.000000 -12.180926 -2.532351 -12.999204 0.000000 0.000000 0.000000 -6.677776 15.567618 51.028537 -19.083463 -29.522180 -5.071930 -14.687563 19.163799 53.749675 0.000000 0.000000 0.000000 7.125000 0.000000 0.000000 68.868952 76.964838 -55.933692
8.161120 15.011635 41.675065 178.270816 -10.720645 177.764341 0.000000 0.000000 0.000000 -28.385995 -18.885599 1.057668 2.493501 9.826192 28.415516 2.097992 -0.348563 -27.326948 2.477673 -9.796913 -28.321753 0.000000 0.000000 0.000000 20.977392 8.049916 -0.574923 -2.984140 -10.669240 31.172434 -2.225465 -14.086698 -36.064898 -0.075794 -1.775556 4.885850 0.562773 2.739341 5.556158 -0.788682 3.619545 -3.470938 -1.539941 1.717145 -6.649707 7.773092 13.803771 -2.055199 -4.112688 18.352816 4.305016 -1.866140 9.171573 2.935613 0.000000 0.000000 0.000000 3.476148 11.536051 -20.901184 18.830696 -29.207667 4.947913 12.581986 7.797415 32.657329 0.000000 0.000000 0.000000 -7.125000 0.000000 0.000000 -10.861687 -2.786522 -11.582995 0.000000 0.000000 0.000000 -6.606119 17.198672 48.908186 -18.998557 -29.416908 -5.030146 -9.836345 16.989655 53.584159 0.000000 0.000000 0.000000 7.125000 0.000000 0.000000 69.882365 75.071086 -54.802343
8.176081 15.014014 41.651620 178.300796 -9.616667 177.959351 0.000000 0.000000 0.000000 -28.262164 -18.622949 0.878037 2.493719 9.826471 28.416692 2.114594 -0.052820 -27.528929 2.278889 -9.424258 -27.131599 0.000000 0.000000 0.000000 21.072032 8.810463 -0.614566 -2.950959 -10.615239 30.993124 -2.019955 -14.429556 -35.226626 -0.012566 -0.722002 1.984184 0.698511 3.177510 5.742342 -0.814596 4.207700 -3.781847 -1.731380 1.987857 -7.060523 7.616061 13.852731 -3.115946 -3.989744 18.381720 6.350246 -1.640708 9.162916 3.816553 0.000000 0.000000 0.000000 3.315431 12.026041 -20.016339 20.601181 -31.359753 5.841015 9.948581 6.436411 32.004393 0.000000 0.000000 0.000000 -7.125000 0.000000 0.000000 -12.282758 -1.765168 -12.953127 0.000000 0.000000 0.000000 -6.828208 17.499891 49.268394 -17.402509 -27.385370 -4.270801 -10.760984 22.013486 51.898384 0.000000 0.000000 0.000000 7.125000 0.000000 0.000000 63.387096 74.892691 -48.708214
8.239109 15.024991 41.613941 178.654756 -11.687501 177.912725 0.000000 0.000000 0.000000 -27.729826 -19.620648 1.250000 2.502901 9.843143 28.470436 2.113458 -0.649285 -27.337411 2.428897 -9.707461 -28.034324 0.000000 0.000000 0.000000 22.040088 8.119374 0.120417 -2.837750 -10.427650 30.372982 -2.069778 -15.383739 -36.254472 -0.054426 -1.505329 4.140358 0.130513 2.150238 5.087720 -0.489694 2.813752 -3.388777 -0.876081 1.350752 -6.349749 8.743125 14.196040 -2.489419 -5.786451 18.952530 5.852327 -2.163092 9.410126 3.547135 0.000000 0.000000 0.000000 3.625614 13.380976 -20.814782 21.580232 -32.499325 6.358808 11.292840 2.993735 31.806579 0.000000 0.000000 0.000000 -7.125000 0.000000 0.000000 -11.513738 -1.758717 -12.105915 0.000000 0.000000 0.000000 -7.177351 16.412633 48.722240 -18.067103 -28.242984 -4.580951 -6.813520 16.455671 53.541821 0.000000 0.000000 0.000000 7.125000 0.000000 0.000000 70.998142 73.938054 -54.558644
8.294051 15.013160 41.608410 178.323192 -12.973677 177.446606 0.000000 0.000000 0.000000 -27.708565 -18.678131 1.199430 2.508601 9.853472 28.503517 2.042728 -2.509703 -26.376400 2.490106 -9.819708 -28.394900 0.000000 0.000000 0.000000 21.989285 7.372754 0.527375 -2.885960 -10.508031 30.638222 -2.273339 -15.369149 -37.297642 -0.154110 -2.529591 6.971574 -1.080168 1.517795 5.460419 -0.186403 1.908482 -2.815710 0.210488 0.970827 -6.021830 7.972170 14.514224 -2.360612 -4.602738 19.322857 5.022902 -1.920741 9.636013 3.386249 0.000000 0.000000 0.000000 4.006016 13.441150 -21.404352 19.216713 -29.686807 5.137827 12.353484 5.596343 33.144616 0.000000 0.000000 0.000000 -7.125000 0.000000 0.000000 -11.032642 -3.230679 -11.853703 0.000000 0.000000 0.000000 -7.423525 16.148412 48.350540 -18.750393 -29.107304 -4.908782 -8.212596 16.356721 53.767585 0.000000 0.000000 0.000000 7.125000 0.000000 0.000000 71.189471 74.512977 -55.389468
8.284420 15.021910 41.604760 178.035703 -12.866700 178.040776 0.000000 0.000000 0.000000 -28.277580 -19.961025 1.444544 2.467724 9.779040 28.264118 2.042427 -1.258441 -26.691139 2.600627 -10.017869 -29.035308 0.000000 0.000000 0.000000 21.545115 7.565728 -0.093923 -2.916813 -10.559241 30.807276 -2.155354 -15.662223 -36.924663 -0.089147 -1.925638 5.300272 -0.464854 1.662479 5.510031 -0.442875 2.122170 -3.226219 -0.432957 1.039424 -6.453323 8.068183 14.506714 -2.795983 -4.569810 19.305093 6.412194 -1.833210 9.613557 3.966392 0.000000 0.000000 0.000000 3.536091 13.015017 -19.110796 17.567812 -27.600226 4.347213 9.164143 11.368498 32.318406 0.000000 0.000000 0.000000 -7.125000 0.000000 0.000000 -12.741974 -1.967038 -13.505618 0.000000 0.000000 0.000000 -6.754964 16.780299 47.655294 -18.497075 -28.788963 -4.786283 -8.868665 17.020263 53.629276 0.000000 0.000000 0.000000 7.125000 0.000000 0.000000 70.433573 74.720792 -54.921786
